<?xml version="1.0"?>
<svg xmlns="http://www.w3.org/2000/svg" xmlns:xlink="http://www.w3.org/1999/xlink" xmlns:svgjs="http://svgjs.com/svgjs" version="1.1" width="512px" height="512px" x="0" y="0" viewBox="0 0 512 512" style="enable-background:new 0 0 512 512" xml:space="preserve" class=""><g><path d="m452.04 368.52h-14.71v-37.22c9.42-7.8 15.43-19.58 15.43-32.74v-107.12c0-13.16-6.01-24.93-15.43-32.74v-40.62c0-24.57-19.99-44.56-44.56-44.56h-273.53c-24.57 0-44.56 19.99-44.56 44.56v40.62c-9.42 7.8-15.43 19.58-15.43 32.74v107.12c0 13.16 6.01 24.93 15.43 32.74v37.22h-14.71c-6.9 0-12.5 5.6-12.5 12.5v16.03c0 23.43 19.07 42.5 42.5 42.5h332.07c23.43 0 42.5-19.07 42.5-42.5v-16.03c0-6.9-5.6-12.5-12.5-12.5zm-129.75-143.77c-6.91 0-12.5-5.6-12.5-12.5s5.59-12.5 12.5-12.5h43.81c4.13 0 8 2.04 10.33 5.46s2.82 7.77 1.3 11.62l-29.64 75.26c-1.94 4.92-6.65 7.92-11.63 7.92-1.53 0-3.08-.28-4.58-.87-6.42-2.53-9.58-9.79-7.05-16.21l22.91-58.18zm-88.2 0c-6.9 0-12.5-5.6-12.5-12.5s5.6-12.5 12.5-12.5h43.82c4.13 0 8 2.04 10.33 5.46s2.81 7.77 1.3 11.62l-29.64 75.26c-1.94 4.92-6.65 7.92-11.63 7.92-1.53 0-3.08-.28-4.58-.87-6.43-2.53-9.58-9.79-7.05-16.21l22.91-58.18zm-88.19 0c-6.9 0-12.5-5.6-12.5-12.5s5.6-12.5 12.5-12.5h43.81c4.14 0 8.01 2.04 10.34 5.46 2.32 3.42 2.81 7.77 1.29 11.62l-29.63 75.26c-1.94 4.92-6.65 7.92-11.64 7.92-1.52 0-3.07-.28-4.57-.87-6.43-2.53-9.58-9.79-7.05-16.21l22.91-58.18zm-46.23-106.67c0-10.79 8.78-19.56 19.56-19.56h83.67v5.01c0 12.79 10.4 23.19 23.19 23.19h59.82c12.79 0 23.19-10.4 23.19-23.19v-5.01h83.67c10.79 0 19.56 8.78 19.56 19.56v30.91c-.69-.03-1.38-.05-2.07-.05h-308.51c-.69 0-1.39.02-2.07.05v-30.91zm0 222.93c.69.03 1.38.05 2.07.05h308.51c.69 0 1.39-.02 2.07-.05v27.51h-312.65z" fill="#999999" data-original="#000000"/></g></svg>
