<?xml version="1.0"?>
<svg xmlns="http://www.w3.org/2000/svg" xmlns:xlink="http://www.w3.org/1999/xlink" xmlns:svgjs="http://svgjs.com/svgjs" version="1.1" width="512px" height="512px" x="0" y="0" viewBox="0 0 512 512" style="enable-background:new 0 0 512 512" xml:space="preserve" class=""><g><g><path d="m416.323 320.645c-52.757 0-95.678 42.921-95.678 95.678s42.921 95.677 95.678 95.677 95.677-42.92 95.677-95.677-42.92-95.678-95.677-95.678zm0 176.355c-44.486 0-80.678-36.192-80.678-80.677 0-44.486 36.192-80.678 80.678-80.678 44.485 0 80.677 36.192 80.677 80.678 0 44.485-36.192 80.677-80.677 80.677z" fill="#999999" data-original="#000000" class=""/><path d="m264.532 215.919c0 52.757 42.92 95.677 95.677 95.677s95.678-42.92 95.678-95.677c0-19.641-5.909-38.515-17.087-54.583-2.366-3.399-7.04-4.24-10.44-1.874s-4.239 7.04-1.874 10.44c9.421 13.542 14.401 29.454 14.401 46.016 0 44.485-36.192 80.677-80.678 80.677-44.485 0-80.677-36.192-80.677-80.677 0-44.486 36.192-80.678 80.677-80.678 16.168 0 31.765 4.763 45.102 13.774 3.432 2.319 8.095 1.417 10.413-2.016 2.319-3.432 1.417-8.094-2.016-10.413-15.827-10.693-34.327-16.345-53.5-16.345-52.755.002-95.676 42.923-95.676 95.679z" fill="#999999" data-original="#000000" class=""/><path d="m215.919 272.548c-52.757 0-95.678 42.92-95.678 95.677s42.921 95.678 95.678 95.678 95.677-42.921 95.677-95.678-42.92-95.677-95.677-95.677zm0 176.355c-44.486 0-80.678-36.192-80.678-80.678 0-44.485 36.192-80.677 80.678-80.677 44.485 0 80.677 36.192 80.677 80.677.001 44.486-36.191 80.678-80.677 80.678z" fill="#999999" data-original="#000000" class=""/><path d="m95.677 368.742h-80.161c-.285 0-.516-.231-.516-.516v-352.71c0-.285.231-.516.516-.516h304.613c.285 0 .516.231.516.516v80.161c0 4.142 3.358 7.5 7.5 7.5s7.5-3.358 7.5-7.5v-80.161c0-8.556-6.96-15.516-15.516-15.516h-304.613c-8.556 0-15.516 6.96-15.516 15.516v352.709c0 8.556 6.96 15.516 15.516 15.516h80.161c4.142 0 7.5-3.358 7.5-7.5s-3.358-7.499-7.5-7.499z" fill="#999999" data-original="#000000" class=""/><path d="m87.661 104.209h-32.064c-4.142 0-7.5 3.358-7.5 7.5s3.358 7.5 7.5 7.5h32.064c4.142 0 7.5-3.358 7.5-7.5s-3.358-7.5-7.5-7.5z" fill="#999999" data-original="#000000" class=""/><path d="m151.791 104.209h-32.065c-4.142 0-7.5 3.358-7.5 7.5s3.358 7.5 7.5 7.5h32.065c4.142 0 7.5-3.358 7.5-7.5s-3.358-7.5-7.5-7.5z" fill="#999999" data-original="#000000" class=""/><path d="m215.919 104.209h-32.064c-4.142 0-7.5 3.358-7.5 7.5s3.358 7.5 7.5 7.5h32.064c4.142 0 7.5-3.358 7.5-7.5s-3.357-7.5-7.5-7.5z" fill="#999999" data-original="#000000" class=""/><path d="m287.548 111.709c0-4.142-3.358-7.5-7.5-7.5h-32.064c-4.142 0-7.5 3.358-7.5 7.5s3.358 7.5 7.5 7.5h32.064c4.142 0 7.5-3.357 7.5-7.5z" fill="#999999" data-original="#000000" class=""/><path d="m87.661 144.291h-32.064c-4.142 0-7.5 3.358-7.5 7.5s3.358 7.5 7.5 7.5h32.064c4.142 0 7.5-3.358 7.5-7.5s-3.358-7.5-7.5-7.5z" fill="#999999" data-original="#000000" class=""/><path d="m151.791 144.291h-32.065c-4.142 0-7.5 3.358-7.5 7.5s3.358 7.5 7.5 7.5h32.065c4.142 0 7.5-3.358 7.5-7.5s-3.358-7.5-7.5-7.5z" fill="#999999" data-original="#000000" class=""/><path d="m215.919 144.291h-32.064c-4.142 0-7.5 3.358-7.5 7.5s3.358 7.5 7.5 7.5h32.064c4.142 0 7.5-3.358 7.5-7.5s-3.357-7.5-7.5-7.5z" fill="#999999" data-original="#000000" class=""/><path d="m247.984 144.291c-4.142 0-7.5 3.358-7.5 7.5s3.358 7.5 7.5 7.5h8.016c4.142 0 7.5-3.358 7.5-7.5s-3.358-7.5-7.5-7.5z" fill="#999999" data-original="#000000" class=""/><path d="m87.661 184.371h-32.064c-4.142 0-7.5 3.358-7.5 7.5s3.358 7.5 7.5 7.5h32.064c4.142 0 7.5-3.358 7.5-7.5s-3.358-7.5-7.5-7.5z" fill="#999999" data-original="#000000" class=""/><path d="m151.791 184.371h-32.065c-4.142 0-7.5 3.358-7.5 7.5s3.358 7.5 7.5 7.5h32.065c4.142 0 7.5-3.358 7.5-7.5s-3.358-7.5-7.5-7.5z" fill="#999999" data-original="#000000" class=""/><path d="m215.919 184.371h-32.064c-4.142 0-7.5 3.358-7.5 7.5s3.358 7.5 7.5 7.5h32.064c4.142 0 7.5-3.358 7.5-7.5s-3.357-7.5-7.5-7.5z" fill="#999999" data-original="#000000" class=""/><path d="m87.661 224.452h-32.064c-4.142 0-7.5 3.358-7.5 7.5s3.358 7.5 7.5 7.5h32.064c4.142 0 7.5-3.358 7.5-7.5s-3.358-7.5-7.5-7.5z" fill="#999999" data-original="#000000" class=""/><path d="m151.791 224.452h-32.065c-4.142 0-7.5 3.358-7.5 7.5s3.358 7.5 7.5 7.5h32.065c4.142 0 7.5-3.358 7.5-7.5s-3.358-7.5-7.5-7.5z" fill="#999999" data-original="#000000" class=""/><path d="m215.919 224.452h-32.064c-4.142 0-7.5 3.358-7.5 7.5s3.358 7.5 7.5 7.5h32.064c4.142 0 7.5-3.358 7.5-7.5s-3.357-7.5-7.5-7.5z" fill="#999999" data-original="#000000" class=""/><path d="m87.661 264.532h-32.064c-4.142 0-7.5 3.358-7.5 7.5s3.358 7.5 7.5 7.5h32.064c4.142 0 7.5-3.358 7.5-7.5s-3.358-7.5-7.5-7.5z" fill="#999999" data-original="#000000" class=""/><path d="m151.274 272.032c0-4.142-3.358-7.5-7.5-7.5h-24.049c-4.142 0-7.5 3.358-7.5 7.5s3.358 7.5 7.5 7.5h24.049c4.143 0 7.5-3.358 7.5-7.5z" fill="#999999" data-original="#000000" class=""/><path d="m287.548 63.613c0-4.142-3.358-7.5-7.5-7.5h-224.451c-4.142 0-7.5 3.358-7.5 7.5s3.358 7.5 7.5 7.5h224.452c4.141 0 7.499-3.358 7.499-7.5z" fill="#999999" data-original="#000000" class=""/><path d="m413.652 401.554c-3.37 0-6.194.202-8.703.585l3.43-20.7h26.32c4.142 0 7.5-3.358 7.5-7.5s-3.358-7.5-7.5-7.5h-32.68c-3.669 0-6.799 2.654-7.399 6.274l-6.474 39.075c-.463 2.792.697 5.6 2.98 7.271 2.283 1.672 5.325 1.91 7.846.625.068-.035.339-.169.779-.367 3.71-1.67 6.683-2.765 13.9-2.765 5.287 0 10.206 2.115 13.853 5.956 3.644 3.837 5.499 8.871 5.224 14.173-.516 9.933-8.72 17.872-18.678 18.072-9.67.23-17.982-6.866-19.316-16.426-.123-.876-.185-1.776-.185-2.672 0-4.142-3.358-7.5-7.5-7.5s-7.5 3.358-7.5 7.5c0 1.589.111 3.187.329 4.747 2.352 16.85 16.806 29.356 33.777 29.355.231 0 .464-.002.696-.007 17.783-.358 32.435-14.542 33.356-32.292.491-9.451-2.821-18.428-9.325-25.279-6.412-6.752-15.425-10.625-24.73-10.625z" fill="#999999" data-original="#000000" class=""/><path d="m246.389 345.545c0-16.408-13.349-29.756-29.756-29.756-14.187 0-26.467 10.092-29.198 23.997-.798 4.064 1.85 8.006 5.914 8.805 4.059.798 8.006-1.849 8.805-5.914 1.353-6.888 7.442-11.888 14.479-11.888 8.137 0 14.756 6.62 14.756 14.756s-6.62 14.756-14.756 14.756c-4.142 0-7.5 3.358-7.5 7.5s3.358 7.5 7.5 7.5c8.137 0 14.756 6.62 14.756 14.756s-6.62 14.756-14.756 14.756c-7.322 0-13.604-5.455-14.613-12.688-.095-.679-.143-1.375-.143-2.068 0-4.142-3.358-7.5-7.5-7.5s-7.5 3.358-7.5 7.5c0 1.384.097 2.777.287 4.141 2.038 14.603 14.707 25.615 29.47 25.615 16.408 0 29.756-13.349 29.756-29.756 0-8.848-3.886-16.801-10.036-22.256 6.149-5.455 10.035-13.408 10.035-22.256z" fill="#999999" data-original="#000000" class=""/><path d="m350.757 254.003c-3.309 2.476-3.993 7.164-1.525 10.481 1.472 1.979 3.733 3.024 6.023 3.024 1.556 0 3.126-.482 4.47-1.483 1.188-.883 28.995-22 33.833-61.774.266-1.674.408-3.39.408-5.138 0-18.004-14.648-32.652-32.652-32.652s-32.652 14.648-32.652 32.652 14.648 32.652 32.652 32.652c2.862 0 5.638-.373 8.284-1.068-8.166 15.049-18.581 23.108-18.841 23.306zm-7.096-54.889c0-9.733 7.919-17.652 17.652-17.652s17.652 7.919 17.652 17.652-7.919 17.652-17.652 17.652-17.652-7.919-17.652-17.652z" fill="#999999" data-original="#000000" class=""/></g></g></svg>
