<?xml version="1.0"?>
<svg xmlns="http://www.w3.org/2000/svg" xmlns:xlink="http://www.w3.org/1999/xlink" xmlns:svgjs="http://svgjs.com/svgjs" version="1.1" width="512px" height="512px" x="0" y="0" viewBox="0 0 100 100" style="enable-background:new 0 0 512 512" xml:space="preserve"><g><g><path d="m3.6 95.6h-1.6c-.6 0-1 .4-1 1s.4 1 1 1h1.6c.6 0 1-.4 1-1s-.4-1-1-1z" fill="#999999" data-original="#000000"/><path d="m98 95.6h-2.6c-.6 0-1 .4-1 1s.4 1 1 1h2.6c.6 0 1-.4 1-1s-.5-1-1-1z" fill="#999999" data-original="#000000"/><path d="m96.5 88.3c0-.5-.4-.9-.9-.9h-33.7c-.1 1.5-1.4 2.6-2.9 2.6h-18.4c-1.5 0-2.7-1.1-2.9-2.6h-33.3c-.2 0-.5.1-.6.3-.2.2-.3.4-.3.6 0 3 1.5 5.7 3.7 7.4-.3.2-.5.5-.5.8 0 .6.4 1 1 1h83.6c.6 0 1-.4 1-1 0-.2-.1-.4-.2-.5.5-.3 1-.7 1.5-1.2 1.8-1.6 2.9-3.9 2.9-6.5z" fill="#999999" data-original="#000000"/><path d="m38.1 67.8c-1.1 0-2 .9-2 2v4.7c0 1 .8 1.9 1.9 1.9h21.5c1 0 1.9-.8 1.9-1.9v-4.7c0-1.1-.9-2-2-2z" fill="#999999" data-original="#000000"/><path d="m91.4 33.4c0-1.9-1.6-3.5-3.5-3.5h-6.3v5.3h4v45.9h-71.2v-45.9h4l-5.4-5.3h-.8c-.3 0-.7.1-1 .2-1.5.4-2.5 1.8-2.5 3.3v52h82.8v-52z" fill="#999999" data-original="#000000"/><path d="m42.8 56.2c.2.2.4.3.6.4l-21.8-35.6c-1.3-2.1-.6-4.9 1.5-6.2l13.7-8.3-2.1-2c-1-1-2.6-.9-3.5 0l-18.5 19c-1 1-.9 2.5 0 3.5zm-25.4-33.4s1.8-.4 3.3-.1c.2 0 .3.1.5.1.5.2 1 .4 1.3.8.6.7.6 1.8-.1 2.5-.2.2-.4.3-.6.3l1.9 2.1-1.2 1.1-2-2.1c-.1.2-.2.4-.4.6-.7.6-1.8.6-2.4-.1-.3-.4-.5-.9-.7-1.4 0-.2-.1-.3-.1-.5 0-1.7.5-3.3.5-3.3z" fill="#999999" data-original="#000000"/><path d="m23.3 20 21.1 34.5-11-38.5c-.7-2.4.7-4.9 3.1-5.5l15.2-4.3-1.5-2.5c-.7-1.2-2.3-1.5-3.4-.8l-22.6 13.6c-1.2.8-1.6 2.3-.9 3.5zm6-2.5 5 1.7-.9 5.2-5-1.7z" fill="#999999" data-original="#000000"/><path d="m35.4 15.4 10.9 38.2v-40.4c0-2.5 2-4.5 4.5-4.5h15.3l-.5-1.8c-.4-1.3-1.8-2.1-3.1-1.7l-25.4 7.2c-1.4.3-2.1 1.7-1.7 3zm4.7 0c.6-.2 1.3 0 1.8.4.2-.6.6-1.1 1.3-1.3 1-.3 2 .3 2.3 1.3.2.5.1 1.1 0 1.7 0 .2-.1.4-.2.5-.6 1.6-1.8 3-1.8 3s-1.9-.5-3.3-1.5c-.2-.1-.3-.2-.4-.4-.4-.4-.7-.8-.9-1.3-.4-1 .2-2.1 1.2-2.4z" fill="#999999" data-original="#000000"/><path d="m48.2 13.2v41.9c0 1.4 1.1 2.5 2.5 2.5h26.4c1.4 0 2.5-1.1 2.5-2.5v-41.9c0-1.4-1.1-2.5-2.5-2.5h-26.4c-1.4 0-2.5 1.1-2.5 2.5zm24.8 33.5c1.1 0 1.9.9 1.9 1.9 0 .5-.2.9-.5 1.2h.3c1 0 1.7.8 1.7 1.8s-.8 1.7-1.8 1.7c-.4 0-.7-.1-1-.3l.3 1.4-2.2-.1.4-1.4c-.3.2-.6.3-1 .3-1 0-1.7-.8-1.7-1.8s.8-1.7 1.8-1.7h.3c-.3-.3-.4-.8-.4-1.2 0-1 .9-1.8 1.9-1.8zm-8.8-20.9c2.3.1 4.1 1.9 4 4.2 0 1-.4 2-1.1 2.7h.6c2.1.1 3.7 1.8 3.7 3.8-.1 2.1-1.8 3.7-3.8 3.7-.8 0-1.5-.3-2.1-.7l.7 3.1-4.7-.1.8-3.1c-.6.4-1.4.7-2.2.6-2.1-.1-3.7-1.8-3.7-3.8.1-2.1 1.8-3.7 3.8-3.7.2 0 .4 0 .6.1-.6-.7-1-1.7-.9-2.7.1-2.4 2-4.2 4.3-4.1zm-10.9-8.9h.3c-.3-.3-.4-.8-.4-1.2 0-1.1.9-1.9 1.9-1.9 1.1 0 1.9.9 1.9 1.9 0 .5-.2.9-.5 1.2h.3c1 0 1.7.8 1.7 1.8s-.8 1.7-1.8 1.7c-.4 0-.7-.1-1-.3l.3 1.4-2.2-.1.4-1.4c-.3.2-.6.3-1 .3-1 0-1.7-.8-1.7-1.8 0-.9.8-1.6 1.8-1.6z" fill="#999999" data-original="#000000"/></g></g></svg>
