<?xml version="1.0" standalone="no"?>
<!DOCTYPE svg PUBLIC "-//W3C//DTD SVG 20010904//EN"
 "http://www.w3.org/TR/2001/REC-SVG-20010904/DTD/svg10.dtd">
<svg version="1.0" xmlns="http://www.w3.org/2000/svg"
 width="512.000000pt" height="512.000000pt" viewBox="0 0 512.000000 512.000000"
 preserveAspectRatio="xMidYMid meet">
<metadata>
Created by potrace 1.14, written by Peter Selinger 2001-2017
</metadata>
<g transform="translate(0.000000,512.000000) scale(0.100000,-0.100000)"
fill="#000000" stroke="none">
<path d="M785 5109 c-107 -10 -252 -58 -350 -115 -90 -52 -254 -210 -293 -281
l-23 -42 23 -20 c12 -12 32 -21 44 -21 37 0 37 -17 0 -38 -19 -11 -38 -33 -44
-51 -11 -30 -10 -32 26 -50 20 -10 53 -21 72 -24 19 -2 51 -11 71 -19 33 -15
36 -14 48 4 6 10 16 16 21 13 6 -4 10 9 10 29 0 55 8 66 49 66 55 0 81 10 81
31 0 11 4 19 8 19 4 0 14 21 21 46 13 43 12 50 -7 90 l-22 44 68 70 c37 38 78
84 92 101 32 39 104 52 144 25 14 -9 45 -16 68 -16 65 0 76 -11 55 -54 -9 -20
-22 -36 -29 -37 -88 -5 -93 -46 -18 -129 22 -25 40 -48 40 -54 0 -5 11 -23 24
-41 23 -30 30 -51 27 -85 -1 -17 -53 -40 -88 -40 -28 0 -33 -8 -22 -38 14 -35
-4 -73 -51 -111 -21 -17 -41 -31 -44 -31 -16 0 -46 -38 -46 -58 0 -20 2 -22
23 -11 12 7 43 14 69 15 55 2 68 9 68 33 0 14 11 20 45 25 25 4 51 14 59 22 8
8 42 27 76 43 77 36 100 66 107 136 3 30 12 60 19 66 8 6 14 24 14 40 0 20 8
33 30 45 16 10 26 21 22 24 -4 3 -12 15 -19 27 -11 19 -9 23 17 35 32 14 41
46 44 147 l1 46 40 2 c22 2 47 -3 56 -10 18 -14 35 -57 22 -57 -4 0 -9 -17
-10 -38 -2 -33 1 -38 20 -39 12 0 30 -4 40 -8 13 -6 16 -4 11 10 -8 19 11 35
42 35 12 0 33 12 47 26 21 20 29 23 45 15 11 -6 22 -8 25 -5 8 8 77 -24 77
-35 0 -6 11 -11 25 -11 16 0 25 -6 25 -16 0 -16 23 -44 37 -44 4 0 19 -13 33
-29 16 -19 39 -32 61 -36 35 -6 39 -4 73 41 47 61 86 184 86 270 l0 64 -225 0
c-162 0 -231 -3 -245 -12 -16 -10 -24 -10 -40 0 -23 14 -634 15 -775 1z m720
-109 c3 -5 1 -10 -4 -10 -6 0 -11 5 -11 10 0 6 2 10 4 10 3 0 8 -4 11 -10z
m-242 -100 c-3 -11 -9 -20 -14 -20 -5 0 -9 9 -9 20 0 11 6 20 14 20 9 0 12 -7
9 -20z m37 -50 c0 -6 -8 -10 -17 -10 -15 0 -16 -2 -3 -10 13 -8 12 -11 -5 -24
-23 -18 -35 -20 -35 -6 0 6 5 10 11 10 6 0 9 10 7 23 -4 18 0 23 19 25 13 1
23 -3 23 -8z"/>
<path d="M2502 5099 c-7 -11 -41 -38 -76 -60 -45 -28 -68 -50 -80 -77 -16 -35
-16 -43 -1 -117 26 -125 29 -129 102 -133 54 -3 62 -1 68 18 5 16 15 20 54 20
46 0 48 1 43 25 -2 15 0 25 8 25 14 0 40 25 40 39 0 5 8 12 18 15 29 8 81 18
87 16 3 -1 16 5 28 13 12 8 49 23 82 35 90 31 126 48 119 55 -4 3 6 4 22 1 19
-4 32 0 40 11 17 23 56 15 71 -15 7 -14 13 -21 13 -16 0 4 12 1 26 -9 14 -9
32 -14 39 -11 19 7 31 -14 14 -25 -24 -15 -4 -19 24 -4 24 12 27 12 27 -1 0
-11 6 -13 20 -9 18 6 19 3 14 -24 -6 -31 -6 -31 27 -25 19 4 56 15 83 25 27
10 53 16 57 13 4 -2 11 1 15 7 4 8 9 7 15 -2 6 -10 9 -8 9 9 0 19 -4 22 -21
17 l-21 -7 21 21 c12 12 21 25 21 29 0 13 47 32 80 32 17 0 33 -7 39 -17 9
-16 12 -15 34 11 14 16 30 25 36 22 6 -4 11 -2 11 3 0 17 42 61 73 77 15 8 27
19 27 24 0 6 -234 10 -648 10 -643 0 -647 0 -660 -21z"/>
<path d="M4230 5104 c9 -10 7 -19 -9 -40 -24 -30 -22 -40 6 -26 24 13 97 -34
101 -66 2 -12 9 -22 16 -22 7 0 20 -6 30 -13 16 -12 15 -15 -9 -50 -14 -21
-23 -43 -20 -48 6 -8 -9 -13 -19 -6 -2 1 -12 -5 -22 -14 -26 -23 -45 -27 -71
-18 -15 6 -27 4 -37 -6 -11 -11 -16 -12 -20 -2 -2 6 -3 -5 -1 -25 2 -25 -1
-38 -8 -38 -7 0 -21 -11 -31 -25 -11 -14 -26 -23 -33 -21 -8 3 -16 -1 -19 -9
-3 -8 -13 -11 -22 -8 -9 4 -14 3 -10 -2 9 -10 -16 -35 -35 -35 -8 0 -20 -15
-26 -32 -24 -65 -49 -103 -70 -106 -12 -2 -21 -9 -20 -15 2 -19 -13 -57 -22
-57 -5 0 -9 -7 -9 -15 0 -12 -19 -19 -50 -17 -3 0 -6 -15 -7 -33 -2 -41 0 -42
150 -39 64 2 115 -1 113 -5 -10 -15 29 -7 41 8 9 13 14 14 24 4 18 -18 34 -16
19 2 -11 13 -9 21 9 46 20 27 21 34 11 87 -10 53 -9 58 11 75 12 9 29 17 38
17 24 0 45 -16 37 -29 -4 -5 -4 -33 0 -61 5 -41 10 -50 23 -45 8 3 12 3 8 -1
-4 -4 -2 -13 4 -21 6 -7 9 -23 6 -35 -5 -21 -5 -21 7 -6 7 10 16 15 19 11 4
-3 7 0 7 8 0 17 45 16 220 -5 197 -24 346 -7 406 46 59 52 40 78 -60 79 -59 1
-68 4 -75 22 -12 31 21 71 80 99 27 12 49 29 49 37 0 7 7 19 16 26 15 11 15
14 0 37 l-17 26 -42 -24 c-88 -49 -162 -84 -178 -84 -9 0 -23 -7 -30 -16 -7
-9 -23 -20 -36 -25 -13 -5 -23 -15 -23 -24 0 -8 -7 -15 -15 -15 -8 0 -15 -6
-15 -14 0 -19 -66 -26 -91 -8 -29 20 -25 68 10 100 16 15 32 38 36 51 4 13 22
43 40 67 19 24 36 53 40 64 3 11 12 20 18 20 7 0 4 5 -6 11 -19 11 -96 -6
-169 -38 -20 -8 -44 -13 -52 -10 -18 7 -22 43 -6 49 6 2 12 17 14 33 2 17 9
43 15 58 10 26 66 105 84 118 12 9 -135 50 -200 55 -32 3 -75 6 -96 8 -31 4
-36 2 -27 -10z m180 -64 c0 -5 9 -10 21 -10 35 0 18 -33 -21 -41 -19 -4 -37
-6 -39 -4 -6 7 21 65 30 65 5 0 9 -4 9 -10z"/>
<path d="M4566 5042 c-2 -4 4 -9 15 -9 11 -1 17 2 14 8 -7 11 -22 12 -29 1z"/>
<path d="M4110 5031 c0 -6 16 -9 35 -7 50 5 52 12 5 14 -22 2 -40 -2 -40 -7z"/>
<path d="M2188 4892 c-25 -40 -51 -93 -46 -97 4 -4 48 -8 71 -6 14 1 17 11 17
65 0 36 -4 67 -9 70 -5 3 -19 -11 -33 -32z"/>
<path d="M2431 4624 c0 -11 3 -14 6 -6 3 7 2 16 -1 19 -3 4 -6 -2 -5 -13z"/>
<path d="M3671 4584 c0 -11 3 -14 6 -6 3 7 2 16 -1 19 -3 4 -6 -2 -5 -13z"/>
<path d="M3523 4435 c0 -27 2 -38 4 -22 2 15 2 37 0 50 -2 12 -4 0 -4 -28z"/>
<path d="M2448 4423 c7 -3 16 -2 19 1 4 3 -2 6 -13 5 -11 0 -14 -3 -6 -6z"/>
<path d="M400 4375 c0 -8 6 -18 14 -21 8 -3 12 -12 9 -20 -3 -7 2 -17 11 -20
9 -3 16 -14 16 -23 1 -9 17 -26 37 -39 28 -18 45 -22 71 -17 23 4 32 11 28 20
-3 9 0 12 9 9 7 -3 15 2 18 13 3 10 6 3 7 -17 2 -32 3 -31 11 14 4 29 4 56 -1
65 -5 9 -10 11 -10 5 0 -14 -61 -5 -80 12 -9 7 -36 16 -60 19 -25 3 -53 8 -62
11 -12 4 -18 0 -18 -11z"/>
<path d="M2473 4377 c-38 -9 -67 -24 -103 -56 -27 -24 -50 -48 -50 -53 0 -5 4
-7 9 -4 5 3 5 -12 -1 -36 -14 -64 13 -178 42 -178 6 0 9 -3 9 -7 -4 -23 3 -31
22 -26 12 4 25 0 29 -8 11 -16 8 -19 52 56 69 116 124 269 107 296 -5 8 -3 16
4 21 18 11 -60 8 -120 -5z"/>
<path d="M2646 4338 c7 -29 17 -68 23 -87 14 -46 121 -259 137 -272 9 -7 22
-1 47 21 l36 31 3 -33 c2 -25 8 -33 22 -33 11 0 21 -6 24 -13 8 -24 20 -11 31
32 14 56 13 92 -1 53 -9 -26 -11 -27 -24 -10 -7 10 -14 31 -14 46 0 35 26 87
45 87 15 0 30 -34 21 -49 -4 -5 -1 -11 5 -13 6 -2 13 -44 17 -93 l7 -90 30 3
c17 1 38 2 47 3 12 0 20 16 29 55 17 74 34 69 36 -11 2 -71 13 -90 58 -101 25
-6 27 -5 21 12 -5 10 -11 30 -16 44 -34 113 -107 228 -196 309 -70 64 -213
134 -305 150 -103 17 -98 19 -83 -41z"/>
<path d="M2230 4341 c-8 -5 -52 -21 -98 -36 -81 -26 -83 -28 -77 -53 4 -15 8
-28 10 -30 8 -9 78 33 92 55 9 13 33 33 55 44 21 11 38 22 38 24 0 7 -2 6 -20
-4z"/>
<path d="M5099 4285 c-4 -3 -17 -8 -29 -10 -12 -2 -25 -6 -27 -9 -8 -8 31 -43
55 -49 18 -4 22 -1 21 16 -1 29 -13 60 -20 52z"/>
<path d="M1778 4182 c-38 -15 -68 -30 -68 -35 0 -5 9 -6 20 -2 10 3 27 2 37
-4 25 -13 70 -3 76 17 3 10 8 25 12 35 9 21 5 21 -77 -11z"/>
<path d="M865 4139 c-15 -6 -11 -8 18 -8 20 -1 37 1 37 3 0 9 -37 12 -55 5z"/>
<path d="M900 4110 c8 -5 22 -9 30 -9 10 0 8 3 -5 9 -27 12 -43 12 -25 0z"/>
<path d="M750 4100 c-18 -12 -2 -12 25 0 13 6 15 9 5 9 -8 0 -22 -4 -30 -9z"/>
<path d="M965 4100 c-16 -8 -15 -9 10 -5 17 3 37 0 45 -6 12 -8 9 -9 -10 -4
l-25 6 25 -14 c14 -8 41 -18 60 -22 19 -4 47 -14 63 -21 29 -16 37 -5 11 17
-17 14 -105 49 -139 55 -11 2 -29 -1 -40 -6z"/>
<path d="M710 4080 c-12 -8 -12 -10 3 -16 10 -4 24 -1 30 5 9 9 8 11 -7 5 -13
-5 -17 -4 -12 4 9 14 6 15 -14 2z"/>
<path d="M644 4057 c-10 -6 -25 -11 -33 -12 -8 0 -16 -6 -18 -12 -6 -17 13
-15 66 6 35 14 40 19 24 23 -11 3 -29 1 -39 -5z"/>
<path d="M1183 4043 c9 -2 23 -2 30 0 6 3 -1 5 -18 5 -16 0 -22 -2 -12 -5z"/>
<path d="M1186 4005 c4 -8 15 -15 25 -15 12 0 16 5 13 15 -4 8 -15 15 -25 15
-12 0 -16 -5 -13 -15z"/>
<path d="M460 4000 c-19 -6 -13 -8 27 -9 28 -1 54 2 56 7 7 10 -52 11 -83 2z"/>
<path d="M4383 3993 c9 -2 23 -2 30 0 6 3 -1 5 -18 5 -16 0 -22 -2 -12 -5z"/>
<path d="M1210 3970 c0 -5 5 -10 10 -10 6 0 10 5 10 10 0 6 -4 10 -10 10 -5 0
-10 -4 -10 -10z"/>
<path d="M1981 3925 c-6 -24 -8 -51 -5 -59 5 -14 10 -14 39 -2 18 8 36 12 39
8 3 -3 6 15 6 39 0 34 -3 41 -11 29 -8 -11 -12 -12 -16 -2 -2 7 -13 17 -23 22
-15 8 -19 3 -29 -35z"/>
<path d="M2920 3941 c0 -10 19 -25 25 -20 1 2 -3 10 -11 17 -8 7 -14 8 -14 3z"/>
<path d="M1990 3831 c0 -6 4 -13 10 -16 6 -3 7 1 4 9 -7 18 -14 21 -14 7z"/>
<path d="M405 3820 c3 -5 10 -10 16 -10 5 0 9 5 9 10 0 6 -7 10 -16 10 -8 0
-12 -4 -9 -10z"/>
<path d="M883 3823 c9 -2 25 -2 35 0 9 3 1 5 -18 5 -19 0 -27 -2 -17 -5z"/>
<path d="M1043 3823 c9 -2 25 -2 35 0 9 3 1 5 -18 5 -19 0 -27 -2 -17 -5z"/>
<path d="M1893 3816 c-22 -10 -31 -26 -15 -26 10 1 46 29 41 33 -2 2 -14 -2
-26 -7z"/>
<path d="M4441 3810 c-15 -13 -18 -20 -9 -20 8 0 23 9 33 20 23 26 7 25 -24 0z"/>
<path d="M977 3798 c-9 -6 -9 -8 1 -8 6 0 12 -7 12 -15 0 -20 20 -19 36 3 12
16 13 16 19 0 9 -22 25 -23 25 -2 0 9 6 14 13 11 6 -2 11 -12 11 -21 -1 -12 7
-16 32 -16 46 0 50 15 11 39 -26 16 -48 20 -91 18 -32 -1 -63 -5 -69 -9z"/>
<path d="M293 3773 c11 -26 12 -26 15 -5 2 14 10 22 23 22 11 0 17 -4 14 -10
-8 -14 -2 -13 31 5 29 15 28 15 -33 15 l-63 0 13 -27z"/>
<path d="M3749 3780 l-24 -19 33 -1 c22 0 32 5 32 15 0 18 26 20 33 3 4 -10 6
-10 6 0 1 17 41 15 41 -3 0 -22 17 -18 23 5 5 18 0 20 -58 20 -48 0 -68 -5
-86 -20z"/>
<path d="M4467 3789 c-9 -6 -15 -14 -12 -20 9 -14 25 -11 25 6 0 21 38 19 43
-2 4 -17 5 -17 6 0 1 21 41 24 41 2 0 -21 13 -19 28 5 12 19 10 20 -50 20 -35
0 -71 -5 -81 -11z"/>
<path d="M4890 3786 c14 -9 32 -15 40 -15 13 0 13 1 0 8 -8 5 -26 12 -40 15
l-25 7 25 -15z"/>
<path d="M660 3786 c0 -3 9 -10 20 -16 11 -6 20 -8 20 -6 0 3 -9 10 -20 16
-11 6 -20 8 -20 6z"/>
<path d="M830 3775 c0 -12 14 -15 71 -15 52 0 70 3 67 13 -3 7 -29 13 -71 15
-55 2 -67 0 -67 -13z"/>
<path d="M3930 3780 c-8 -5 -11 -13 -6 -17 5 -4 11 -2 13 5 4 10 8 9 17 -3 9
-12 25 -15 66 -13 50 3 53 4 37 20 -18 18 -102 23 -127 8z"/>
<path d="M1185 3770 c-6 -10 2 -12 120 -16 121 -5 475 8 475 17 0 13 -587 12
-595 -1z"/>
<path d="M1885 3770 c-3 -6 1 -7 9 -4 18 7 21 14 7 14 -6 0 -13 -4 -16 -10z"/>
<path d="M3418 3763 c7 -3 16 -2 19 1 4 3 -2 6 -13 5 -11 0 -14 -3 -6 -6z"/>
<path d="M3493 3763 c9 -2 23 -2 30 0 6 3 -1 5 -18 5 -16 0 -22 -2 -12 -5z"/>
<path d="M422 3748 c-12 -6 -21 -16 -19 -22 4 -11 12 -11 60 0 22 5 26 4 21
-10 -5 -14 2 -16 49 -16 31 0 59 -4 62 -10 3 -5 4 -10 1 -10 -2 0 -32 -7 -66
-16 -46 -11 -65 -13 -75 -4 -16 13 -28 -1 -19 -23 3 -8 8 -61 12 -117 l7 -102
63 80 c34 45 62 83 62 86 0 4 -16 6 -35 6 -44 0 -44 9 -2 35 129 80 104 73
265 70 141 -3 172 0 172 14 0 3 -96 6 -213 6 -201 0 -214 1 -255 23 -47 24
-57 26 -90 10z m111 -184 c8 -8 -42 -74 -55 -74 -9 0 -2 54 9 73 5 9 37 9 46
1z"/>
<path d="M2102 3748 c-14 -14 -16 -38 -3 -38 5 0 11 11 13 25 6 29 6 29 -10
13z"/>
<path d="M4755 3737 c-37 -20 -56 -22 -250 -25 -115 -1 -214 -2 -220 -2 -5 0
-3 -5 5 -10 17 -9 339 -12 433 -4 40 4 57 10 57 20 0 16 23 18 50 4 13 -7 21
-6 29 4 9 11 5 16 -20 25 -39 14 -36 14 -84 -12z"/>
<path d="M3117 3729 c4 -13 8 -18 11 -10 2 7 -1 18 -6 23 -8 8 -9 4 -5 -13z"/>
<path d="M1914 3729 c-3 -6 10 -27 29 -47 41 -40 59 -39 26 1 -11 15 -18 31
-15 36 3 5 -1 12 -10 15 -21 8 -22 8 -30 -5z"/>
<path d="M3265 3731 c-19 -8 -19 -9 -2 -12 18 -4 18 -5 -2 -28 -37 -42 -22
-47 18 -6 48 50 43 68 -14 46z"/>
<path d="M1831 3711 c-1 -10 -11 -12 -38 -9 -35 4 -597 -13 -978 -30 -146 -6
-164 -9 -202 -32 -49 -29 -54 -40 -18 -40 14 0 25 -5 25 -11 0 -6 -34 -52 -75
-101 l-75 -90 0 -123 c0 -101 3 -126 15 -133 14 -7 13 -14 -5 -54 -17 -39 -20
-70 -22 -218 -2 -128 -6 -174 -15 -178 -10 -3 -13 -41 -13 -147 0 -134 1 -143
20 -148 23 -6 25 5 8 33 -11 17 -10 22 1 29 10 6 12 22 9 55 -9 76 -3 79 159
78 126 -1 143 1 158 18 23 25 13 37 -35 45 -25 4 -40 12 -40 21 0 11 -4 12
-19 4 -28 -14 -33 -13 -22 8 6 9 20 40 33 67 12 28 24 54 26 59 3 5 0 6 -7 2
-6 -4 -11 -3 -11 2 0 6 6 12 14 15 7 3 30 40 51 81 34 69 39 75 51 59 12 -16
13 -13 14 26 0 24 3 41 7 38 3 -4 26 22 49 57 24 35 58 75 76 90 27 22 30 28
18 36 -11 7 -16 5 -18 -5 -2 -10 -15 -15 -36 -15 -18 0 -47 -5 -65 -11 -44
-16 -165 6 -156 28 3 11 1 13 -10 9 -8 -3 -22 -9 -30 -12 -13 -5 -13 -3 0 22
8 16 15 34 15 40 0 24 26 62 50 72 l25 11 -27 -4 c-29 -4 -38 9 -14 18 8 3 32
44 55 91 23 47 43 86 46 86 2 0 2 -7 -1 -15 -3 -8 -2 -20 3 -27 5 -8 10 3 14
32 5 43 6 44 16 20 6 -14 27 -54 47 -88 20 -35 36 -70 36 -77 0 -7 7 -15 15
-19 8 -3 15 -14 15 -24 0 -11 10 -43 22 -71 19 -46 24 -52 45 -46 12 3 23 4
23 3 0 -2 -14 -37 -31 -78 -29 -69 -31 -82 -26 -166 3 -76 9 -103 37 -162 18
-39 43 -81 56 -93 l23 -21 27 21 c31 24 40 22 25 -7 -8 -15 -7 -30 3 -59 13
-35 14 -21 16 167 0 113 1 222 0 242 0 20 4 39 10 43 6 4 84 8 174 10 l163 3
-1 -34 c-1 -30 -4 -34 -28 -34 -15 0 -33 -6 -39 -13 -10 -10 -20 -10 -46 -3
-40 13 -45 31 -5 21 26 -6 26 -6 7 9 -14 11 -44 15 -106 16 -47 0 -88 -2 -91
-6 -3 -3 -2 -20 2 -38 4 -18 4 -99 1 -182 -8 -203 -4 -274 15 -274 8 0 23 14
32 32 24 45 94 118 113 118 25 0 30 11 14 34 -22 31 -18 42 5 15 l20 -24 24
27 24 26 27 -28 c16 -16 32 -27 37 -24 16 10 68 123 58 129 -5 3 -6 13 -3 21
5 14 3 15 -16 5 -22 -12 -87 -6 -97 10 -3 5 -20 9 -39 9 -38 0 -54 16 -35 33
10 9 14 9 17 0 5 -14 41 -17 68 -7 12 5 13 9 5 14 -17 10 18 59 42 60 11 0 21
14 29 40 12 40 13 40 63 41 163 2 159 2 208 44 25 22 84 65 131 95 47 30 86
58 86 62 1 4 -26 21 -59 39 -91 48 -116 82 -125 168 -6 63 -43 206 -44 172z
m-207 -179 c27 -26 54 -47 60 -47 6 0 16 -10 22 -23 6 -12 21 -33 33 -46 30
-32 27 -44 -21 -89 -24 -22 -34 -37 -24 -33 16 5 17 4 6 -9 -7 -8 -24 -15 -37
-15 -18 0 -24 -4 -19 -15 3 -9 0 -15 -8 -15 -7 0 -23 -11 -36 -25 l-23 -24
-32 24 c-17 14 -37 25 -43 25 -7 0 -11 6 -9 13 1 6 -10 13 -25 15 -14 2 -32
10 -40 19 -12 15 -11 15 10 4 31 -17 27 0 -8 34 -23 22 -27 32 -19 42 9 10 7
13 -10 13 -25 0 -27 13 -4 31 9 8 22 29 30 47 8 18 18 32 24 30 5 -2 33 18 61
44 27 27 53 48 57 48 3 0 28 -21 55 -48z m-214 -497 c7 -8 9 -15 6 -15 -4 0
-14 7 -22 15 -9 8 -11 15 -6 15 5 0 15 -7 22 -15z m-41 -21 c-7 -9 -21 -33
-30 -53 -10 -20 -18 -30 -18 -23 -1 20 38 92 50 92 7 0 7 -6 -2 -16z"/>
<path d="M1530 3515 c-12 -15 -5 -39 9 -30 12 7 21 45 11 45 -4 0 -13 -7 -20
-15z"/>
<path d="M1554 3458 c-5 -7 -21 -21 -36 -31 -16 -10 -28 -23 -28 -30 0 -7 18
-31 40 -52 l40 -39 42 41 c23 23 40 44 37 45 -2 2 -23 20 -46 41 -32 30 -43
36 -49 25z"/>
<path d="M1530 3266 c0 -2 7 -9 15 -16 12 -10 15 -10 15 4 0 9 -7 16 -15 16
-8 0 -15 -2 -15 -4z"/>
<path d="M3340 3710 c0 -7 -7 -21 -16 -31 -24 -26 -35 -86 -18 -100 10 -8 14
-5 19 18 3 15 11 47 17 71 6 23 8 45 4 49 -3 3 -6 0 -6 -7z"/>
<path d="M1880 3694 c1 -5 6 -36 13 -69 l13 -59 22 22 c12 12 22 28 22 35 0 9
-3 8 -9 -2 -7 -10 -11 -8 -16 10 -8 25 -45 78 -45 63z"/>
<path d="M3416 3691 c-38 -6 -40 -8 -53 -56 -7 -27 -13 -69 -13 -93 0 -82 -48
-144 -140 -182 -16 -7 -30 -16 -30 -20 0 -4 42 -33 93 -65 52 -33 131 -96 182
-145 50 -47 95 -86 100 -86 6 1 28 10 50 20 67 32 130 43 191 32 30 -6 54 -15
54 -21 0 -5 16 -20 35 -33 20 -12 45 -37 55 -55 30 -48 24 -55 -9 -11 -36 50
-69 79 -78 70 -4 -4 -2 -15 5 -24 51 -71 52 -73 35 -111 -20 -43 -19 -115 2
-144 18 -25 19 -37 5 -37 -6 0 -18 15 -26 33 -14 30 -15 30 -9 4 8 -40 -13
-55 -81 -60 -57 -3 -56 -3 16 -5 122 -4 183 -44 225 -150 24 -59 13 -117 -35
-189 -21 -32 -48 -64 -59 -71 -23 -13 -28 -5 104 -170 19 -24 35 -49 35 -56 0
-7 -36 -45 -81 -85 -74 -67 -82 -73 -105 -63 -13 7 -39 35 -58 64 -19 29 -46
68 -60 87 l-25 34 -3 -79 -3 -78 -94 -23 c-86 -22 -95 -23 -117 -8 -23 15 -24
20 -24 131 l0 116 -37 -71 c-66 -129 -139 -181 -254 -181 -81 0 -134 24 -197
87 -68 68 -110 159 -118 253 -7 79 7 173 33 223 29 57 5 49 -36 -11 -23 -34
-47 -62 -54 -62 -7 1 -23 7 -37 15 -38 22 -74 18 -103 -11 -31 -31 -42 -78
-33 -140 9 -66 21 -84 59 -84 43 0 54 9 62 50 13 69 55 92 55 30 0 -17 -7 -30
-17 -34 -14 -6 -10 -14 23 -49 54 -57 104 -123 104 -137 0 -19 -90 -101 -126
-116 -148 -62 -338 72 -390 276 -20 78 -15 210 11 283 16 43 16 51 1 94 -9 25
-14 48 -12 50 6 6 46 -20 46 -29 0 -17 18 -6 62 36 52 50 121 72 191 62 68
-10 167 -76 211 -140 12 -17 13 -17 31 10 l18 28 -39 34 -39 34 70 -5 c38 -3
77 -1 86 4 15 8 14 13 -7 55 -13 26 -24 55 -24 64 0 9 -13 36 -30 58 -34 47
-35 52 -17 52 21 0 41 -29 66 -90 12 -31 34 -68 50 -83 25 -23 38 -27 90 -27
34 0 77 -7 97 -15 48 -20 133 -108 172 -180 l33 -60 -4 102 c-2 55 0 107 4
115 8 14 -47 131 -82 177 -22 27 -25 46 -6 35 7 -4 9 -3 4 2 -5 5 -14 9 -20 9
-7 0 -11 8 -9 18 4 23 -122 149 -203 204 -139 93 -222 124 -312 116 -59 -6
-64 -8 -47 -20 16 -12 2 -13 -111 -7 -71 3 -159 11 -195 16 -110 17 -202 18
-250 4 -59 -18 -146 -65 -142 -78 1 -5 -2 -7 -8 -3 -13 8 -42 -14 -35 -25 3
-5 0 -12 -6 -16 -8 -4 -9 -3 -5 4 9 14 -3 15 -24 2 -8 -5 -11 -12 -7 -16 3 -4
-11 -16 -33 -26 -22 -11 -38 -24 -35 -28 7 -11 -20 -32 -29 -22 -4 4 -6 2 -4
-4 2 -6 -23 -36 -54 -67 -31 -31 -79 -94 -106 -139 l-49 -83 -94 2 c-82 1 -87
0 -39 -7 30 -4 69 -13 85 -19 35 -14 110 -85 129 -122 12 -25 10 -29 -42 -88
-30 -33 -58 -61 -63 -61 -4 0 -24 11 -44 24 -47 32 -86 22 -138 -36 -49 -54
-67 -97 -67 -163 0 -67 7 -84 37 -96 37 -14 47 0 18 23 -26 20 -26 22 -19 102
3 44 8 83 10 85 2 2 79 16 171 32 162 27 169 27 186 10 28 -27 38 -87 26 -160
-34 -215 -220 -361 -410 -322 -109 23 -204 116 -241 235 -17 56 -20 84 -15
152 5 72 4 82 -9 77 -9 -3 -11 -9 -6 -12 11 -7 3 -121 -9 -121 -5 0 -4 -12 1
-26 14 -35 13 -37 -15 -30 -32 8 -32 -2 0 -14 15 -6 25 -17 25 -29 0 -11 3
-28 7 -38 4 -13 -3 -9 -25 11 -23 21 -32 25 -32 14 0 -18 51 -85 80 -105 11
-8 20 -21 20 -30 0 -20 156 -181 184 -189 12 -4 33 -15 47 -25 14 -10 52 -28
84 -40 32 -12 69 -33 82 -47 22 -23 26 -25 46 -13 15 10 22 10 25 2 2 -6 19
-11 38 -11 40 0 40 -3 14 -72 -22 -58 -25 -82 -10 -73 13 8 50 89 50 109 0 9
2 16 5 16 3 0 40 -36 83 -80 73 -75 80 -80 120 -80 46 0 58 -17 15 -22 -26 -3
-25 -5 32 -43 84 -57 152 -90 210 -104 28 -7 66 -19 85 -27 92 -36 293 -45
435 -20 135 24 298 96 410 181 65 49 195 174 195 187 0 24 19 2 30 -34 13 -41
39 -82 47 -75 2 2 -3 19 -11 38 -7 19 -17 49 -21 68 -6 28 -5 33 8 28 9 -3 26
4 41 18 24 23 25 23 42 3 18 -19 18 -19 31 7 11 20 21 25 51 25 38 0 214 78
180 79 -28 1 -21 14 17 32 23 11 35 13 35 5 0 -12 75 -46 102 -46 9 0 29 5 43
12 19 8 31 8 50 0 23 -11 25 -10 25 16 0 21 2 24 10 12 5 -8 10 -27 10 -41 0
-15 12 -48 26 -74 25 -44 26 -53 21 -134 -3 -51 -14 -109 -27 -144 -23 -61
-32 -211 -15 -250 4 -10 2 -36 -4 -58 -10 -33 -9 -43 5 -64 16 -24 16 -28 -1
-68 -10 -23 -27 -50 -38 -60 -18 -16 -15 -17 83 -17 60 0 110 5 123 12 15 8
70 11 172 10 l150 -2 55 34 c53 34 54 35 27 41 -15 4 -27 12 -27 17 0 5 34 50
75 99 l75 89 0 121 c0 97 -3 124 -15 133 -13 10 -12 19 10 71 20 49 25 77 25
157 0 53 4 100 10 103 13 8 13 198 0 211 -14 14 -15 481 -1 498 7 8 11 37 9
68 l-4 53 -16 -36 c-11 -23 -26 -38 -40 -41 -13 -3 -96 -4 -185 -4 l-163 2 0
-23 c0 -22 4 -23 83 -24 45 -1 87 -2 92 -4 6 -1 14 -3 19 -3 4 -1 -2 -11 -15
-22 -17 -14 -19 -18 -6 -14 23 8 23 8 -20 -83 -24 -49 -39 -71 -41 -60 -2 10
6 39 18 64 12 25 19 48 16 51 -21 20 -120 -158 -114 -205 3 -27 4 -26 32 22
16 27 31 44 34 37 4 -13 -44 -120 -71 -156 -14 -19 -16 -17 -46 30 -17 27 -31
55 -31 62 0 6 -4 12 -10 12 -5 0 -10 -6 -10 -14 0 -7 -23 -49 -51 -92 -78
-121 -118 -156 -119 -106 -1 9 -14 32 -30 51 -16 19 -27 38 -24 43 3 4 -1 8
-8 8 -7 0 -19 9 -26 21 -11 18 -11 24 4 40 9 10 36 24 58 30 61 16 88 36 77
57 -5 9 -7 29 -5 45 3 31 -1 32 -36 12 -38 -22 -57 -20 -36 4 11 12 14 21 7
26 -18 11 6 42 55 71 25 14 43 29 40 32 -3 3 -12 -1 -21 -8 -26 -22 -16 -4 18
32 34 36 83 138 67 138 -5 0 -10 17 -12 37 l-3 37 -43 -56 c-23 -31 -61 -68
-83 -84 l-40 -27 -42 47 -42 48 2 507 c1 278 2 512 2 519 1 6 10 12 20 12 29
0 34 17 8 24 -28 7 -629 5 -681 -3z m479 -121 c-21 -23 -35 -26 -35 -7 0 15
-261 12 -271 -4 -3 -6 -16 -1 -30 10 l-24 20 189 1 c188 0 189 0 171 -20z
m-296 -84 c18 -35 31 -69 27 -75 -4 -6 -2 -11 3 -11 6 0 11 -7 11 -15 0 -8 4
-15 9 -15 4 0 19 -25 33 -55 27 -59 38 -61 38 -8 0 41 80 203 109 221 26 15
27 8 3 -18 -25 -27 -92 -165 -92 -190 0 -31 13 -24 39 22 13 24 26 37 28 31 4
-12 -22 -72 -63 -145 -17 -32 -34 -36 -34 -9 0 10 -6 23 -13 29 -7 6 -24 35
-38 64 -13 29 -29 57 -36 61 -7 4 -13 17 -13 28 0 11 -13 46 -30 79 -32 64
-34 70 -22 70 4 0 22 -29 41 -64z m301 59 c0 -3 -13 -32 -30 -66 -19 -40 -28
-71 -25 -88 3 -14 2 -19 -1 -11 -4 8 -12 18 -17 22 -7 4 -2 25 11 56 12 28 22
57 22 66 0 8 6 17 13 19 17 7 27 8 27 2z m-1250 -401 c67 -8 137 -22 155 -30
33 -13 85 -76 85 -101 0 -9 12 -11 43 -7 38 5 47 3 72 -20 21 -20 26 -29 17
-38 -9 -9 -18 -9 -37 0 -14 7 -41 12 -60 12 -19 0 -37 5 -41 11 -5 8 -9 7 -15
-4 -5 -9 -17 -13 -28 -10 -10 3 -22 0 -25 -6 -16 -25 -33 -10 -34 30 -2 53 -7
59 -45 59 -24 0 -49 -13 -94 -50 -57 -46 -81 -52 -68 -18 3 8 1 27 -4 41 -17
45 -71 30 -71 -20 0 -19 -5 -23 -31 -23 -17 0 -39 5 -49 10 -13 7 -21 7 -26
-1 -18 -29 -154 -61 -154 -36 0 7 14 29 31 50 30 36 30 37 8 37 -30 0 -19 10
61 55 61 35 151 72 177 74 6 1 66 -6 133 -15z m710 -217 c18 -21 20 -26 7 -21
-17 6 -37 34 -37 50 0 4 1 5 3 3 1 -2 13 -17 27 -32z m-41 -75 c19 -15 32 -34
30 -40 -3 -8 -20 3 -44 28 -45 46 -36 54 14 12z m-1032 -164 c10 -13 43 -128
67 -233 21 -90 74 -290 102 -381 13 -45 24 -89 24 -97 0 -11 -26 -21 -91 -36
-50 -12 -101 -21 -113 -21 -31 0 -56 29 -63 74 -6 37 -15 42 -59 30 -18 -5
-23 -16 -29 -61 -4 -30 -12 -56 -18 -58 -7 -3 -59 6 -115 19 -127 29 -150 46
-135 103 66 247 96 372 118 488 14 76 28 141 31 144 5 5 197 35 255 40 9 0 21
-5 26 -11z m-372 -84 c3 -20 4 -38 2 -40 -2 -2 -23 14 -46 36 l-42 40 39 0
c38 0 40 -2 47 -36z m2690 -643 l29 -6 -27 -18 c-21 -13 -27 -14 -27 -4 0 11
-29 14 -140 15 -85 0 -138 -3 -135 -9 8 -12 -2 -11 -28 3 -21 12 -21 13 13 19
45 8 276 9 315 0z m-279 -113 c13 -26 24 -56 24 -66 0 -11 6 -25 14 -31 8 -7
25 -37 37 -67 24 -58 37 -55 38 9 1 15 21 67 45 116 43 84 47 89 90 103 25 9
46 14 46 12 0 -3 -62 -136 -66 -143 -2 -1 -7 0 -13 3 -6 4 0 26 15 57 14 28
23 54 19 57 -19 19 -115 -156 -115 -210 0 -33 1 -33 31 20 17 29 33 51 36 48
9 -8 -17 -74 -51 -130 l-33 -54 -36 61 c-19 34 -39 74 -42 90 -4 15 -13 27
-21 27 -8 0 -14 8 -14 19 0 10 -13 48 -30 84 -16 37 -30 70 -30 74 1 13 30
-29 56 -79z m-1292 5 c-10 -7 -27 -13 -38 -13 -18 0 -18 1 4 25 19 20 26 22
38 13 12 -10 11 -14 -4 -25z m311 -267 c-9 -13 -38 -42 -63 -63 -26 -20 -49
-40 -52 -43 -3 -3 -23 -16 -45 -29 -22 -12 -31 -16 -20 -7 11 9 40 32 65 52
25 20 63 55 85 78 44 46 55 51 30 12z m-379 9 c-8 -8 -18 -15 -22 -15 -3 0 -1
7 6 15 7 8 17 15 22 15 5 0 3 -7 -6 -15z m71 -7 c-8 -13 -22 -22 -31 -20 -9 2
-16 -1 -16 -5 0 -5 10 -9 23 -10 69 -5 107 -15 107 -29 0 -11 4 -12 19 -4 13
6 28 7 43 1 13 -6 20 -11 16 -12 -5 -1 -11 -2 -15 -3 -5 -1 -36 -16 -71 -34
-112 -58 -215 -91 -226 -73 -3 3 22 24 55 45 52 34 73 56 52 56 -16 0 -173
-83 -173 -91 0 -16 -100 -7 -109 9 -11 20 28 61 39 42 12 -20 74 -5 104 25 14
14 31 23 36 20 6 -3 10 3 10 14 0 11 9 22 20 26 11 4 18 11 15 16 -4 5 0 9 7
9 8 0 31 9 53 20 51 26 61 25 42 -2z m-337 -62 c0 -8 6 -17 13 -20 6 -3 0 -4
-15 -1 -23 4 -25 2 -21 -16 5 -19 4 -20 -15 -10 -33 18 -34 29 -5 44 37 19 43
20 43 3z m1795 -155 c22 -21 49 -41 61 -45 11 -3 26 -21 32 -40 7 -19 19 -37
27 -40 23 -8 18 -26 -7 -27 -23 -1 -23 -1 1 -8 l23 -6 -33 -33 c-18 -17 -36
-32 -41 -32 -4 0 -8 -7 -8 -16 0 -14 3 -14 15 -4 10 8 15 9 15 1 0 -6 -12 -14
-27 -17 -16 -4 -30 -10 -33 -13 -3 -3 -20 -19 -37 -35 l-31 -28 -39 28 c-21
16 -39 32 -41 37 -2 4 -13 7 -25 7 -27 0 -54 16 -44 26 3 4 13 1 22 -6 28 -23
15 6 -15 35 -32 31 -38 50 -17 58 6 3 -1 6 -17 6 l-30 1 27 28 c15 15 27 35
27 44 0 17 27 44 36 36 3 -3 26 14 51 38 25 24 51 44 57 44 6 0 29 -17 51 -39z"/>
<path d="M3055 1499 c-11 -16 -2 -17 30 -3 l30 13 -27 1 c-15 0 -30 -5 -33
-11z"/>
<path d="M4402 1349 l-24 -29 26 0 c22 0 26 4 26 30 0 17 -1 30 -2 29 -2 0
-13 -13 -26 -30z"/>
<path d="M4396 1269 c-44 -41 -43 -45 14 -96 33 -30 40 -29 80 12 l33 34 -39
45 c-21 24 -41 44 -44 44 -3 0 -23 -18 -44 -39z"/>
<path d="M4415 1101 c-3 -5 -1 -12 5 -16 5 -3 10 1 10 9 0 18 -6 21 -15 7z"/>
<path d="M2048 3681 c-1 -5 -38 -48 -81 -96 l-77 -86 15 -29 c18 -35 31 -38
38 -9 4 13 10 18 17 14 7 -4 4 5 -5 19 -17 26 -17 28 3 46 20 19 21 19 71 -1
57 -21 87 -24 96 -9 4 6 1 17 -5 25 -10 12 -9 16 6 22 13 5 -2 10 -45 13 -64
5 -95 26 -53 37 22 5 46 49 32 58 -4 3 -10 1 -12 -4z m-105 -184 c2 -6 -3 -19
-11 -27 -14 -13 -15 -12 -9 3 3 9 2 17 -4 17 -6 0 -7 5 -4 10 9 14 22 13 28
-3z"/>
<path d="M3150 3685 c0 -15 34 -55 46 -55 11 0 9 8 -8 30 -20 27 -38 39 -38
25z"/>
<path d="M4143 3683 c11 -10 56 -12 62 -2 4 5 -11 9 -31 9 -21 0 -34 -3 -31
-7z"/>
<path d="M4408 3641 c-2 -28 -7 -35 -20 -33 -10 2 -26 -2 -37 -8 -22 -11 -81
-3 -81 12 0 6 9 8 20 5 25 -6 27 8 3 18 -23 9 -142 17 -168 11 -19 -5 -20 -14
-22 -258 l-2 -253 54 1 c30 0 57 2 59 5 3 3 -6 28 -19 57 -23 50 -23 52 -5 52
11 0 50 -26 87 -57 55 -47 74 -57 97 -55 22 3 26 6 15 13 -9 6 2 9 36 9 28 0
61 3 75 6 19 4 22 3 10 -5 -8 -6 -34 -13 -57 -17 -43 -6 -48 -13 -44 -56 1
-10 -2 -18 -8 -18 -6 0 -8 -6 -5 -14 10 -25 42 -6 48 30 4 18 11 36 17 40 6 3
81 7 167 8 l157 3 0 144 c0 126 -2 146 -18 157 -19 14 -127 147 -127 156 0 4
14 6 30 6 17 0 30 3 30 8 0 20 -54 36 -144 43 -54 3 -101 11 -105 16 -3 6 -14
10 -23 10 -12 0 -18 -10 -20 -36z m95 -87 c52 -51 87 -94 87 -106 0 -5 -16 7
-35 27 -19 20 -39 34 -44 31 -6 -4 -2 -15 10 -27 25 -25 17 -39 -22 -39 -27 0
-29 3 -24 22 6 18 4 20 -11 13 -25 -11 -98 -7 -102 5 -2 6 -19 10 -37 10 -35
0 -51 12 -40 30 4 7 13 7 25 0 11 -6 31 -8 45 -4 25 6 25 7 9 25 -15 17 -15
19 -1 19 9 0 20 6 24 14 8 14 12 16 34 16 5 0 15 15 22 33 l12 32 3 -30 c2
-18 19 -45 45 -71z m159 -27 c11 -22 17 -42 14 -45 -3 -3 -6 -1 -6 5 0 6 -16
35 -36 64 -23 35 -28 47 -14 34 12 -11 31 -37 42 -58z m-377 53 c3 -5 2 -10
-4 -10 -5 0 -13 5 -16 10 -3 6 -2 10 4 10 5 0 13 -4 16 -10z m-64 -63 c-28
-59 -40 -67 -22 -16 9 26 38 69 46 69 1 0 -10 -24 -24 -53z m311 -109 c-9 -9
-15 -9 -24 0 -9 9 -7 12 12 12 19 0 21 -3 12 -12z m35 -34 c-3 -3 -12 -4 -19
-1 -8 3 -5 6 6 6 11 1 17 -2 13 -5z m-117 -89 c18 -6 18 -7 -1 -26 -10 -10
-19 -28 -19 -39 0 -23 -6 -24 -46 -10 -17 6 -46 33 -69 65 -46 64 -57 88 -28
63 19 -17 20 -17 43 7 l23 24 39 -39 c22 -21 48 -42 58 -45z"/>
<path d="M4443 3526 c-18 -12 -32 -27 -33 -33 0 -17 7 -16 52 5 32 16 36 21
25 34 -11 13 -15 13 -44 -6z"/>
<path d="M4810 3668 c0 -18 18 -34 28 -24 3 4 -2 14 -11 23 -16 16 -17 16 -17
1z"/>
<path d="M4715 3641 c-3 -6 4 -15 15 -21 29 -16 25 -30 -10 -30 -16 0 -30 -3
-30 -7 0 -5 21 -35 47 -68 39 -51 44 -56 39 -30 -4 17 -16 39 -27 51 -26 27
-24 37 5 30 26 -6 46 21 25 35 -7 4 -9 14 -6 22 9 23 -45 39 -58 18z"/>
<path d="M3015 3603 c6 -4 11 -24 12 -43 2 -19 7 -36 13 -38 6 -2 8 -8 4 -13
-3 -5 -2 -9 3 -9 13 0 99 29 88 29 -5 1 7 10 28 21 21 11 42 18 47 15 6 -4 10
-1 10 5 0 7 7 10 15 6 8 -3 15 -2 15 3 0 5 -44 11 -97 14 -54 3 -109 8 -123
12 -14 4 -21 3 -15 -2z"/>
<path d="M3260 3564 c0 -6 14 -23 30 -39 17 -16 30 -24 30 -19 0 6 -13 23 -30
39 -16 16 -30 24 -30 19z"/>
<path d="M4817 3506 c-4 -10 -5 -21 -2 -24 9 -9 17 6 13 25 -3 17 -4 17 -11
-1z"/>
<path d="M791 3312 c-12 -23 -3 -36 15 -21 8 7 14 7 19 -1 8 -13 62 -13 71 1
12 20 -11 30 -42 19 -23 -9 -31 -8 -40 5 -11 15 -13 15 -23 -3z"/>
<path d="M4810 3138 c0 -7 5 -20 10 -28 8 -12 10 -9 10 13 0 15 -4 27 -10 27
-5 0 -10 -6 -10 -12z"/>
<path d="M450 3115 c1 -26 2 -28 11 -12 8 14 8 22 0 30 -8 8 -11 3 -11 -18z"/>
<path d="M1586 3104 c-11 -30 -6 -43 32 -78 l37 -36 29 30 c24 24 27 31 17 44
-10 12 -9 14 8 9 21 -5 51 12 51 29 0 5 -28 8 -62 7 -35 -2 -73 0 -84 4 -16 5
-23 3 -28 -9z"/>
<path d="M4460 3088 c0 -27 8 -42 38 -69 44 -40 87 -99 72 -99 -5 0 -15 9 -22
20 -13 21 -38 27 -38 10 0 -5 5 -10 10 -10 6 0 10 -9 10 -20 0 -16 -7 -20 -31
-20 -26 0 -29 3 -24 21 5 16 4 20 -6 15 -8 -3 -22 -9 -31 -12 -27 -10 -26
-147 1 -171 17 -14 18 -19 6 -37 -7 -12 -13 -38 -13 -58 -1 -37 0 -38 36 -39
l37 -1 -39 -12 c-31 -10 -36 -14 -22 -19 10 -4 27 -5 39 -2 12 3 82 7 156 9
122 2 135 4 141 22 9 25 7 205 -3 221 -4 6 -3 14 3 18 13 8 13 65 0 85 -5 9
-5 19 1 26 10 12 8 89 -3 99 -4 4 -4 13 -1 20 4 11 -23 15 -134 18 -76 2 -148
7 -160 11 -21 8 -23 5 -23 -26z m166 -50 c27 -29 47 -68 40 -76 -3 -3 -6 0 -6
7 0 6 -21 35 -47 63 -27 28 -39 46 -28 40 11 -5 30 -21 41 -34z m-94 -170 c-9
-9 -15 -9 -24 0 -9 9 -7 12 12 12 19 0 21 -3 12 -12z"/>
<path d="M4104 2900 c-1 -110 2 -200 7 -200 11 0 63 69 87 116 21 41 48 172
38 182 -3 3 -15 -15 -27 -39 -16 -35 -19 -38 -14 -14 3 17 15 42 26 57 15 22
18 35 11 60 -8 32 -10 33 -68 36 l-59 3 -1 -201z"/>
<path d="M3625 3031 c-2 -2 -14 -4 -26 -5 -12 0 -24 -5 -26 -11 -6 -21 13 -32
51 -27 26 3 34 7 25 13 -10 6 -7 9 11 9 47 1 55 17 11 22 -23 2 -44 2 -46 -1z"/>
<path d="M3755 2996 c-11 -12 -19 -32 -17 -44 l4 -23 26 27 27 26 3 -36 c2
-22 8 -36 17 -36 7 0 16 -10 18 -22 2 -13 5 12 6 55 l1 77 -32 -1 c-20 -1 -41
-10 -53 -23z m52 -2 c-3 -3 -12 -4 -19 -1 -8 3 -5 6 6 6 11 1 17 -2 13 -5z"/>
<path d="M1573 2986 c-60 -39 -44 -65 18 -29 31 18 33 22 21 39 -5 8 -17 5
-39 -10z"/>
<path d="M4443 2982 c-33 -25 -16 -42 24 -26 22 10 31 19 27 29 -8 20 -24 19
-51 -3z"/>
<path d="M3640 2955 c-7 -8 -16 -12 -21 -9 -5 3 -4 -6 3 -20 6 -14 19 -26 28
-26 9 0 21 -5 27 -11 7 -7 19 -9 28 -5 15 5 15 8 1 21 -8 8 -20 15 -26 15 -7
0 -9 8 -5 19 7 24 -19 35 -35 16z"/>
<path d="M4990 2801 c-44 -6 -44 -6 27 -14 39 -4 78 -10 87 -13 12 -4 16 0 16
15 0 18 -5 21 -42 19 -24 0 -63 -4 -88 -7z"/>
<path d="M4908 2793 c6 -2 18 -2 25 0 6 3 1 5 -13 5 -14 0 -19 -2 -12 -5z"/>
<path d="M791 2772 c-14 -27 -14 -32 3 -32 17 0 27 23 16 40 -6 10 -11 8 -19
-8z"/>
<path d="M4815 2730 c-4 -7 0 -19 9 -28 13 -14 16 -14 16 -2 0 25 -16 44 -25
30z"/>
<path d="M3678 2693 c7 -3 16 -2 19 1 4 3 -2 6 -13 5 -11 0 -14 -3 -6 -6z"/>
<path d="M950 2643 c0 -10 -5 -24 -11 -30 -18 -18 -2 -57 46 -110 24 -28 42
-53 40 -57 -3 -3 -2 -4 2 -1 3 3 20 -6 37 -19 37 -28 120 -43 142 -25 15 12
19 30 7 28 -28 -5 -82 34 -64 46 11 6 -34 55 -49 55 -4 0 -34 25 -66 56 -84
80 -84 80 -84 57z"/>
<path d="M507 2314 c1 -135 4 -248 7 -251 10 -10 476 -13 476 -3 0 5 -31 65
-69 132 -38 68 -73 135 -76 151 -8 30 -31 47 -64 47 -12 0 -21 5 -21 10 0 6
-18 10 -40 10 -28 0 -40 4 -40 14 0 8 5 18 10 21 6 3 10 1 10 -4 0 -6 16 -11
36 -11 31 0 36 3 31 19 -3 12 1 22 9 25 19 7 18 56 0 56 -8 0 -21 -7 -30 -15
-17 -17 -36 -20 -36 -5 0 6 -9 10 -20 10 -11 0 -20 5 -20 11 0 6 9 8 20 4 24
-7 27 10 4 19 -9 3 -55 6 -102 6 l-87 0 2 -246z m183 176 c0 -5 -2 -10 -4 -10
-3 0 -8 5 -11 10 -3 6 -1 10 4 10 6 0 11 -4 11 -10z m-68 -55 c-15 -30 -28
-50 -30 -45 -5 13 42 100 54 100 2 0 -9 -25 -24 -55z m217 -227 c22 -16 22
-18 7 -33 -9 -9 -16 -25 -16 -36 0 -40 -65 -11 -112 51 -41 52 -46 65 -24 57
8 -3 25 4 37 17 l22 23 31 -31 c17 -18 42 -39 55 -48z m56 -138 c-28 -12 -103
-12 -110 0 -4 6 19 10 62 9 47 0 62 -3 48 -9z"/>
<path d="M4410 2433 c-7 -32 -16 -71 -21 -87 -14 -44 -11 -69 12 -121 22 -51
39 -48 39 8 0 44 84 201 114 215 14 6 26 18 26 27 0 12 -15 15 -79 15 l-80 0
-11 -57z"/>
<path d="M980 2460 c8 -5 20 -10 25 -10 6 0 3 5 -5 10 -8 5 -19 10 -25 10 -5
0 -3 -5 5 -10z"/>
<path d="M3740 2454 c0 -14 3 -14 15 -4 8 7 15 14 15 16 0 2 -7 4 -15 4 -8 0
-15 -7 -15 -16z"/>
<path d="M3184 2407 c-44 -65 -63 -187 -35 -221 15 -18 53 -21 81 -6 40 21 54
145 24 220 -20 49 -41 51 -70 7z"/>
<path d="M457 2345 c-4 -8 -2 -17 3 -20 6 -4 10 3 10 14 0 25 -6 27 -13 6z"/>
<path d="M1080 2288 c17 -18 36 -41 41 -50 8 -14 6 -16 -8 -11 -26 10 -45 31
-38 43 3 6 -1 13 -11 17 -16 6 -44 -19 -44 -38 0 -7 132 -51 137 -45 9 9 -45
89 -68 101 -42 22 -45 18 -9 -17z"/>
<path d="M454 2270 c3 -44 16 -49 16 -7 0 21 -4 37 -9 37 -5 0 -8 -13 -7 -30z"/>
<path d="M462 2155 c0 -16 2 -22 5 -12 2 9 2 23 0 30 -3 6 -5 -1 -5 -18z"/>
<path d="M1558 2143 c7 -3 16 -2 19 1 4 3 -2 6 -13 5 -11 0 -14 -3 -6 -6z"/>
<path d="M450 2056 c0 -8 -4 -16 -9 -18 -6 -2 -10 -85 -11 -193 -2 -167 0
-194 16 -225 18 -33 19 -34 22 -11 2 13 -2 28 -10 32 -10 7 -10 9 0 9 14 0 15
167 0 176 -5 3 -4 12 3 20 9 11 9 21 1 39 -7 15 -8 27 -2 30 11 7 10 155 -2
155 -4 0 -8 -6 -8 -14z"/>
<path d="M515 2015 c-9 -5 -13 -491 -4 -499 6 -5 375 -11 492 -8 l97 2 0 69
c0 81 20 145 60 186 24 26 28 36 24 74 -2 27 -10 49 -21 56 -47 33 -96 76
-115 100 -15 19 -25 24 -42 19 -11 -4 -49 -6 -83 -6 -61 2 -63 1 -63 -23 0
-14 4 -25 8 -25 21 0 122 -113 122 -136 0 -11 -49 32 -50 44 0 14 -26 16 -35
2 -3 -5 0 -10 7 -10 8 0 14 -9 15 -20 1 -16 -4 -20 -28 -20 -26 0 -29 3 -24
21 6 18 5 19 -14 10 -22 -12 -98 -5 -107 10 -3 5 -21 9 -40 9 -33 0 -48 20
-24 35 6 3 10 1 10 -4 0 -6 16 -11 35 -11 35 0 50 22 23 33 -7 3 -3 6 10 6 15
1 22 7 22 20 0 15 6 19 25 16 20 -2 25 2 25 21 0 26 -24 33 -33 10 -3 -8 -14
-12 -25 -9 -10 2 -26 -3 -35 -11 -18 -18 -37 -21 -37 -6 0 6 -9 10 -20 10 -11
0 -20 4 -20 9 0 14 -133 36 -155 26z m533 -85 c12 -18 22 -38 22 -44 0 -6 -6
-2 -12 9 -6 11 -27 38 -47 59 -28 31 -31 36 -11 24 14 -8 35 -30 48 -48z
m-407 -4 c-6 -8 -20 -31 -31 -52 -11 -22 -19 -33 -20 -26 0 25 48 107 58 97 3
-2 0 -11 -7 -19z m304 -136 c-3 -5 -12 -10 -20 -10 -8 0 -17 5 -20 10 -4 6 5
10 20 10 15 0 24 -4 20 -10z m-107 -122 c28 -17 33 -24 20 -26 -15 -3 -24 -27
-19 -54 1 -10 -7 -10 -47 -2 -22 5 -43 22 -72 60 -46 61 -47 64 -21 57 13 -3
25 3 36 21 l17 25 24 -29 c14 -16 42 -39 62 -52z m57 -139 c-11 -4 -36 -8 -55
-8 -19 0 -44 4 -55 8 -12 5 9 8 55 8 46 0 67 -3 55 -8z"/>
<path d="M843 1899 c-53 -34 -38 -53 20 -26 15 6 27 20 27 30 0 22 -8 21 -47
-4z"/>
<path d="M1214 1844 c3 -9 6 -21 6 -27 0 -6 8 -3 18 6 15 16 15 19 2 27 -22
14 -33 12 -26 -6z"/>
<path d="M4805 1509 c-4 -12 -2 -26 4 -32 8 -8 11 -2 11 21 0 37 -6 41 -15 11z"/>
<path d="M450 1499 c0 -11 4 -18 10 -14 5 3 7 12 3 20 -7 21 -13 19 -13 -6z"/>
<path d="M481 1472 c-7 -2 -11 -46 -11 -130 l1 -127 74 -89 c41 -49 75 -93 75
-97 0 -5 -9 -9 -19 -9 -39 0 -30 -19 25 -50 l56 -33 136 5 c114 4 142 2 167
-11 27 -14 115 -16 825 -18 437 -1 840 -1 895 0 55 1 264 2 464 2 283 0 365
-3 369 -12 5 -16 108 -18 117 -3 3 6 36 10 73 11 37 0 85 4 107 8 31 6 9 9
-90 13 -76 3 -150 1 -178 -5 -35 -8 -60 -8 -93 1 -24 7 -60 12 -79 12 -18 0
-36 4 -40 9 -3 6 -6 91 -7 190 -1 204 1 200 -75 123 -20 -20 -33 -30 -28 -22
8 13 7 13 -8 1 -9 -7 -17 -21 -17 -30 0 -11 -3 -12 -8 -4 -5 8 -12 8 -26 -2
-10 -8 -15 -19 -10 -26 5 -9 1 -11 -15 -6 -14 3 -49 -7 -94 -28 -40 -18 -79
-35 -87 -39 -18 -8 161 1 213 10 30 5 37 4 37 -9 0 -36 -58 -51 -204 -54 -119
-2 -141 0 -151 14 -10 14 -26 15 -106 10 -91 -6 -363 6 -413 19 -22 5 -29 0
-48 -32 -21 -35 -23 -37 -26 -16 -2 12 -8 22 -13 22 -5 0 -15 11 -21 25 -8 18
-47 44 -129 86 -74 39 -154 91 -216 141 -54 43 -113 90 -130 104 l-32 26 -58
-48 c-32 -26 -62 -51 -66 -54 -9 -8 61 -150 74 -150 5 0 9 -11 9 -25 0 -14 11
-48 25 -77 26 -53 26 -70 1 -49 -8 7 -17 8 -20 3 -3 -5 -39 -15 -80 -21 -81
-13 -158 -7 -193 16 -14 9 -23 11 -28 4 -3 -6 -10 -11 -15 -11 -4 0 5 30 20
68 19 44 34 66 44 64 8 -1 17 2 21 8 3 5 -1 10 -9 10 -21 0 -20 1 9 54 14 25
25 46 25 48 0 2 -32 2 -71 0 -39 -3 -91 1 -117 8 -66 18 -159 86 -183 132 -11
21 -23 38 -27 39 -23 3 -612 4 -621 1z m451 -49 c96 -6 107 -12 66 -34 -18
-10 -20 -9 -15 4 5 14 -12 16 -139 16 -90 0 -142 -3 -139 -9 4 -6 -1 -10 -9
-10 -12 0 -9 -11 13 -48 15 -26 34 -66 41 -88 7 -21 18 -46 25 -54 6 -8 20
-36 31 -62 22 -54 34 -53 34 3 0 28 14 67 45 128 43 84 48 90 90 104 25 8 45
10 45 6 0 -16 -64 -139 -72 -139 -12 0 -10 15 12 66 22 50 20 65 -5 44 -20
-17 -95 -167 -95 -191 0 -31 16 -22 45 24 23 37 25 39 20 13 -3 -16 -14 -43
-23 -61 -9 -18 -26 -50 -36 -71 -13 -23 -22 -32 -24 -23 -3 8 -15 27 -28 42
-13 15 -31 50 -41 77 -10 28 -23 50 -30 50 -7 0 -13 9 -13 21 0 11 -14 48 -30
81 -17 34 -29 67 -26 74 3 8 0 17 -7 21 -7 5 14 10 48 14 95 9 114 9 217 2z
m2130 -465 c-23 -9 -104 -9 -118 0 -7 4 21 7 62 7 40 0 66 -3 56 -7z"/>
<path d="M3436 1387 l-49 -43 -1 -184 -1 -185 85 -7 c104 -8 579 -2 588 7 10
10 10 328 0 348 -6 11 -5 17 3 17 7 0 10 3 6 6 -3 4 -29 -8 -58 -26 -29 -17
-68 -34 -88 -37 -20 -4 -39 -11 -43 -17 -5 -7 -8 -7 -8 2 0 10 -15 12 -52 10
-48 -2 -129 17 -180 43 -10 5 -32 9 -49 9 -28 0 -30 2 -24 28 4 20 1 33 -10
42 -18 15 -14 19 -54 -50 -18 -30 -29 -44 -26 -30 4 14 17 40 30 59 45 65 1
70 -69 8z m384 -143 c0 -2 -9 -4 -21 -4 -11 0 -18 4 -14 10 5 8 35 3 35 -6z
m-78 -130 c20 -6 20 -6 -3 -18 -13 -6 -25 -22 -27 -34 -7 -45 -67 -20 -116 48
-44 62 -60 95 -32 68 9 -10 21 -18 25 -18 13 0 31 24 31 40 0 11 17 0 51 -32
27 -26 59 -50 71 -54z m26 -126 c-7 -4 -29 -8 -48 -8 -19 0 -41 4 -48 8 -7 5
13 9 48 9 35 0 55 -4 48 -9z"/>
<path d="M3587 1359 c7 -7 15 -10 18 -7 3 3 -2 9 -12 12 -14 6 -15 5 -6 -5z"/>
<path d="M227 1240 c5 -56 4 -62 -14 -66 -19 -5 -33 -45 -33 -94 0 -13 1 -13
10 0 7 11 10 1 11 -35 1 -27 4 -41 6 -31 4 15 7 16 14 5 6 -10 9 -10 9 -2 0 7
7 10 15 7 12 -5 15 3 15 36 0 37 -2 42 -20 37 -15 -4 -20 0 -20 15 0 10 4 27
9 36 15 28 18 145 4 149 -10 4 -11 -10 -6 -57z"/>
<path d="M167 1255 c-3 -17 -1 -34 3 -39 14 -14 24 22 13 47 -9 21 -10 20 -16
-8z"/>
<path d="M1643 1197 c4 -10 7 -21 7 -23 0 -9 29 -3 36 8 4 6 3 8 -4 4 -6 -3
-18 2 -28 11 -17 17 -18 17 -11 0z"/>
<path d="M4755 1125 c-33 -42 -61 -80 -63 -85 -2 -6 10 -10 27 -10 16 0 32 -4
35 -8 2 -4 -27 -29 -65 -55 l-70 -47 -164 0 c-90 0 -166 -4 -170 -9 -3 -6 83
-11 217 -13 213 -3 225 -4 264 -27 39 -22 42 -22 73 -7 55 29 21 44 -43 20
-12 -4 -16 0 -16 15 0 19 -6 21 -62 21 -51 1 -59 3 -44 12 11 6 38 15 60 20
23 5 49 11 59 14 11 4 17 0 17 -12 0 -13 3 -14 15 -4 8 7 12 17 8 24 -4 6 -10
59 -13 118 l-5 108 -60 -75z m39 -32 c-7 -29 -22 -53 -33 -53 -3 0 -12 4 -20
9 -11 7 -9 15 10 40 29 40 52 42 43 4z"/>
<path d="M449 1128 c0 -35 -4 -85 -9 -113 -8 -50 2 -83 18 -58 6 9 22 9 67 -3
85 -22 88 -28 20 -34 -51 -4 -60 -8 -57 -23 3 -15 -1 -17 -20 -11 -61 20 -93
-3 -33 -24 31 -12 37 -11 65 10 31 22 40 23 261 26 136 2 227 7 223 13 -3 5
-79 9 -170 9 l-164 0 -70 46 c-72 48 -79 64 -29 64 16 0 29 2 29 6 0 7 -108
141 -120 149 -6 4 -10 -17 -11 -57z m76 -81 c-21 -11 -41 6 -48 41 -8 43 3 45
34 5 26 -32 28 -38 14 -46z"/>
<path d="M1517 1153 c-10 -10 -8 -43 2 -43 9 0 21 24 21 41 0 11 -14 12 -23 2z"/>
<path d="M1600 1152 c0 -7 -11 -12 -24 -12 -13 0 -26 -7 -30 -15 -4 -12 3 -15
34 -15 45 0 59 15 36 38 -10 11 -16 12 -16 4z"/>
<path d="M2260 1111 c0 -5 5 -13 10 -16 6 -3 10 -2 10 4 0 5 -4 13 -10 16 -5
3 -10 2 -10 -4z"/>
<path d="M161 1000 c0 -29 1 -32 10 -17 7 11 7 23 0 35 -9 14 -10 11 -10 -18z"/>
<path d="M222 960 c0 -14 2 -19 5 -12 2 6 2 18 0 25 -3 6 -5 1 -5 -13z"/>
<path d="M3895 930 c-15 -6 -7 -9 30 -9 36 -1 46 2 35 9 -18 12 -38 12 -65 0z"/>
<path d="M3923 863 c9 -2 23 -2 30 0 6 3 -1 5 -18 5 -16 0 -22 -2 -12 -5z"/>
<path d="M340 845 c0 -8 71 -46 80 -43 5 2 -10 13 -35 25 -25 12 -45 20 -45
18z"/>
<path d="M4905 840 c-8 -13 5 -13 25 0 13 8 13 10 -2 10 -9 0 -20 -4 -23 -10z"/>
</g>
</svg>
